<?xml version="1.0" encoding="utf-8"?>
<svg viewBox="0 0 379.7 500" xmlns="http://www.w3.org/2000/svg">
  <path d="M 8.55 8.5 L 371.094 8.5 L 370.421 241.299 C 370.421 278.131 355.337 324.432 342.354 337.415 L 189.822 487.846 L 37.297 337.415 C 18.487 318.605 8.55 279.298 8.55 241.299 L 8.55 8.5 Z" style="stroke: rgb(18, 40, 126); stroke-width: 17px; fill: rgb(255, 255, 255);"/>
  <path d="M 43.442 196.275 L 336.202 196.275 L 335.658 240.7 C 335.658 270.443 323.477 307.83 312.993 318.314 L 189.821 439.79 L 66.656 318.314 C 51.467 303.126 43.442 271.384 43.442 240.7 L 43.442 196.275 Z" style="stroke-width: 17px; fill: rgb(149, 34, 34); stroke: rgb(149, 34, 34);"/>
  <path d="M 77.02 56.496 L 77.02 65.127 L 74.323 65.127 L 74.323 76.715 C 72.744 77.681 70.433 78.542 67.391 79.299 C 64.357 80.047 61.076 80.421 57.549 80.421 C 50.83 80.421 45.564 78.518 41.751 74.712 C 37.939 70.913 36.032 65.034 36.032 57.075 C 36.032 48.923 37.931 42.992 41.728 39.282 C 45.52 35.572 50.939 33.717 57.987 33.717 C 61.402 33.717 64.601 34.103 67.583 34.876 C 70.572 35.649 72.818 36.518 74.323 37.483 L 74.323 51.341 L 60.841 51.341 L 60.841 48.613 C 60.841 46.987 60.526 45.821 59.897 45.112 C 59.268 44.397 58.272 44.038 56.908 44.038 C 55.538 44.038 54.537 44.397 53.908 45.112 C 53.279 45.821 52.964 46.987 52.964 48.613 L 52.964 65.537 C 52.964 67.155 53.279 68.322 53.908 69.038 C 54.537 69.754 55.538 70.112 56.908 70.112 C 58.272 70.112 59.268 69.754 59.897 69.038 C 60.526 68.322 60.841 67.155 60.841 65.537 L 60.841 65.127 L 57.93 65.127 L 57.93 56.496 L 77.02 56.496 Z M 111.914 79.612 L 78.531 79.612 L 78.531 70.112 L 81.228 70.112 L 81.228 44.038 L 78.531 44.038 L 78.531 34.538 L 101.296 34.538 L 101.296 44.038 L 96.329 44.038 L 96.329 70.112 L 101.183 70.112 L 101.183 64.777 L 111.914 64.777 L 111.914 79.612 Z M 134.027 80.421 C 127.443 80.421 122.365 78.566 118.792 74.856 C 115.211 71.154 113.421 65.227 113.421 57.075 C 113.421 48.923 115.211 42.992 118.792 39.282 C 122.365 35.572 127.443 33.717 134.027 33.717 C 140.605 33.717 145.683 35.572 149.262 39.282 C 152.836 42.992 154.622 48.923 154.622 57.075 C 154.622 65.227 152.836 71.154 149.262 74.856 C 145.683 78.566 140.605 80.421 134.027 80.421 Z M 134.027 70.112 C 135.249 70.112 136.166 69.762 136.779 69.062 C 137.387 68.37 137.69 67.291 137.69 65.827 L 137.69 48.323 C 137.69 46.859 137.387 45.776 136.779 45.076 C 136.166 44.385 135.249 44.038 134.027 44.038 C 132.807 44.038 131.889 44.385 131.275 45.076 C 130.66 45.776 130.353 46.859 130.353 48.323 L 130.353 65.827 C 130.353 67.332 130.66 68.422 131.275 69.098 C 131.889 69.774 132.807 70.112 134.027 70.112 Z M 156.458 79.612 L 156.458 70.112 L 159.155 70.112 L 159.155 44.038 L 156.458 44.038 L 156.458 34.538 L 181.211 34.538 C 185.847 34.538 189.39 35.56 191.839 37.604 C 194.283 39.648 195.503 42.972 195.503 47.575 C 195.503 50.158 195.019 52.395 194.053 54.287 C 193.08 56.186 191.693 57.501 189.896 58.234 L 189.953 58.813 C 193.406 59.393 195.132 61.671 195.132 65.646 L 195.132 70.112 L 197.66 70.112 L 197.66 79.612 L 180.571 79.612 L 180.571 65.996 C 180.571 64.491 180.362 63.352 179.941 62.58 C 179.53 61.807 178.884 61.285 178.008 61.01 C 177.126 60.745 175.874 60.612 174.256 60.612 L 174.256 70.112 L 177.817 70.112 L 177.817 79.612 L 156.458 79.612 Z M 174.256 53.538 L 177.165 53.538 C 178.207 53.538 178.991 53.24 179.514 52.645 C 180.038 52.041 180.3 51.104 180.3 49.832 L 180.3 47.744 C 180.3 46.473 180.038 45.535 179.514 44.931 C 178.991 44.336 178.207 44.038 177.165 44.038 L 174.256 44.038 L 174.256 53.538 Z M 220.096 79.612 L 199.602 79.612 L 199.602 70.112 L 202.299 70.112 L 202.299 44.038 L 199.602 44.038 L 199.602 34.538 L 220.096 34.538 L 220.096 44.038 L 217.401 44.038 L 217.401 70.112 L 220.096 70.112 L 220.096 79.612 Z M 242.533 80.421 C 235.949 80.421 230.871 78.566 227.298 74.856 C 223.716 71.154 221.927 65.227 221.927 57.075 C 221.927 48.923 223.716 42.992 227.298 39.282 C 230.871 35.572 235.949 33.717 242.533 33.717 C 249.11 33.717 254.188 35.572 257.77 39.282 C 261.342 42.992 263.128 48.923 263.128 57.075 C 263.128 65.227 261.342 71.154 257.77 74.856 C 254.188 78.566 249.11 80.421 242.533 80.421 Z M 242.533 70.112 C 243.754 70.112 244.671 69.762 245.287 69.062 C 245.893 68.37 246.197 67.291 246.197 65.827 L 246.197 48.323 C 246.197 46.859 245.893 45.776 245.287 45.076 C 244.671 44.385 243.754 44.038 242.533 44.038 C 241.311 44.038 240.394 44.385 239.781 45.076 C 239.166 45.776 238.86 46.859 238.86 48.323 L 238.86 65.827 C 238.86 67.332 239.166 68.422 239.781 69.098 C 240.394 69.774 241.311 70.112 242.533 70.112 Z M 285.133 80.421 C 279.492 80.421 275.133 79.09 272.054 76.426 C 268.984 73.761 267.447 69.436 267.447 63.449 L 267.447 44.038 L 264.75 44.038 L 264.75 34.538 L 284.706 34.538 L 284.706 44.038 L 282.549 44.038 L 282.549 66.406 C 282.549 67.678 282.807 68.612 283.324 69.207 C 283.849 69.811 284.631 70.112 285.671 70.112 C 286.713 70.112 287.495 69.811 288.02 69.207 C 288.544 68.612 288.806 67.678 288.806 66.406 L 288.806 44.038 L 286.649 44.038 L 286.649 34.538 L 305.144 34.538 L 305.144 44.038 L 302.447 44.038 L 302.447 63.449 C 302.447 69.436 300.956 73.761 297.975 76.426 C 294.987 79.09 290.705 80.421 285.133 80.421 Z M 323.801 80.421 C 320.349 80.421 317.086 80.104 314.015 79.468 C 310.937 78.831 308.574 78.107 306.925 77.295 L 306.925 65.827 L 318.79 65.827 C 318.79 67.018 319.042 67.888 319.544 68.434 C 320.046 68.974 320.962 69.243 322.296 69.243 C 323.405 69.243 324.203 69.058 324.69 68.688 C 325.176 68.326 325.42 67.774 325.42 67.034 C 325.42 66.422 325.187 65.891 324.724 65.441 C 324.252 64.998 323.443 64.547 322.296 64.089 L 317.656 62.35 C 313.664 60.724 310.794 58.81 309.049 56.604 C 307.305 54.407 306.432 51.434 306.432 47.684 C 306.432 43.129 307.825 39.665 310.611 37.29 C 313.397 34.909 318.046 33.717 324.555 33.717 C 327.686 33.717 330.625 34.055 333.375 34.731 C 336.124 35.407 338.344 36.309 340.037 37.435 L 340.037 47.804 L 329.251 47.804 C 329.251 45.873 328.135 44.907 325.903 44.907 C 324.824 44.907 324.06 45.052 323.611 45.342 C 323.161 45.632 322.937 46.142 322.937 46.875 C 322.937 47.535 323.199 48.058 323.723 48.444 C 324.239 48.83 325.094 49.232 326.284 49.651 L 330.97 51.39 C 334.783 52.781 337.563 54.589 339.307 56.81 C 341.052 59.031 341.925 61.94 341.925 65.537 C 341.925 70.438 340.386 74.144 337.307 76.655 C 334.236 79.166 329.734 80.421 323.801 80.421 Z" style="fill: rgb(18, 40, 126); white-space: pre;"/>
  <path d="M 37.293 172.321 L 37.293 160.442 L 40.663 160.442 L 40.663 127.85 L 37.293 127.85 L 37.293 115.971 L 68.236 115.971 C 74.034 115.971 78.46 117.251 81.517 119.81 C 84.573 122.369 86.101 126.522 86.101 132.268 C 86.101 135.503 85.494 138.304 84.281 140.67 C 83.068 143.035 81.337 144.677 79.09 145.595 L 79.158 146.319 C 83.472 147.043 85.629 149.892 85.629 154.865 L 85.629 160.442 L 88.798 160.442 L 88.798 172.321 L 67.427 172.321 L 67.427 155.3 C 67.427 153.417 67.169 151.992 66.652 151.027 C 66.135 150.061 65.327 149.409 64.226 149.071 C 63.123 148.733 61.563 148.564 59.539 148.564 L 59.539 160.442 L 63.989 160.442 L 63.989 172.321 L 37.293 172.321 Z M 59.539 139.728 L 63.18 139.728 C 64.484 139.728 65.461 139.354 66.112 138.605 C 66.764 137.857 67.09 136.686 67.09 135.093 L 67.09 132.485 C 67.09 130.892 66.764 129.721 66.112 128.972 C 65.461 128.224 64.484 127.85 63.18 127.85 L 59.539 127.85 L 59.539 139.728 Z M 125.493 173.335 C 118.437 173.335 112.987 171.669 109.144 168.337 C 105.302 165.005 103.38 159.597 103.38 152.113 L 103.38 127.85 L 100.01 127.85 L 100.01 115.971 L 124.953 115.971 L 124.953 127.85 L 122.256 127.85 L 122.256 155.807 C 122.256 157.4 122.582 158.571 123.234 159.32 C 123.886 160.068 124.864 160.442 126.166 160.442 C 127.47 160.442 128.448 160.068 129.1 159.32 C 129.751 158.571 130.076 157.4 130.076 155.807 L 130.076 127.85 L 127.381 127.85 L 127.381 115.971 L 150.503 115.971 L 150.503 127.85 L 147.133 127.85 L 147.133 152.113 C 147.133 159.597 145.268 165.005 141.537 168.337 C 137.807 171.669 132.459 173.335 125.493 173.335 Z M 215.108 143.422 L 215.108 154.214 L 211.737 154.214 L 211.737 168.699 C 209.759 169.906 206.872 170.981 203.074 171.922 C 199.277 172.864 195.176 173.335 190.771 173.335 C 182.367 173.335 175.783 170.957 171.019 166.2 C 166.255 161.444 163.872 154.093 163.872 144.146 C 163.872 133.958 166.243 126.546 170.985 121.911 C 175.727 117.275 182.502 114.957 191.311 114.957 C 195.58 114.957 199.58 115.44 203.311 116.406 C 207.041 117.372 209.85 118.458 211.737 119.665 L 211.737 136.976 L 194.884 136.976 L 194.884 133.572 C 194.884 131.544 194.49 130.083 193.703 129.19 C 192.917 128.296 191.67 127.85 189.962 127.85 C 188.254 127.85 187.007 128.296 186.221 129.19 C 185.434 130.083 185.041 131.544 185.041 133.572 L 185.041 154.721 C 185.041 156.749 185.434 158.209 186.221 159.102 C 187.007 159.996 188.254 160.442 189.962 160.442 C 191.67 160.442 192.917 159.996 193.703 159.102 C 194.49 158.209 194.884 156.749 194.884 154.721 L 194.884 154.214 L 191.243 154.214 L 191.243 143.422 L 215.108 143.422 Z M 228.343 172.321 L 228.343 160.442 L 231.715 160.442 L 231.715 127.85 L 228.343 127.85 L 228.343 115.971 L 259.287 115.971 C 264.905 115.971 269.287 117.203 272.433 119.665 C 275.579 122.128 277.151 125.653 277.151 130.24 C 277.151 133.089 276.522 135.491 275.265 137.446 C 274.006 139.402 272.534 140.875 270.849 141.865 C 269.164 142.854 267.534 143.518 265.961 143.856 L 265.961 144.581 C 269.152 144.919 272.028 146.005 274.59 147.84 C 277.151 149.675 278.432 152.958 278.432 157.69 C 278.432 162.76 276.658 166.466 273.108 168.808 C 269.556 171.15 264.95 172.321 259.287 172.321 L 228.343 172.321 Z M 250.591 139.728 L 254.231 139.728 C 255.534 139.728 256.512 139.354 257.164 138.605 C 257.815 137.857 258.141 136.686 258.141 135.093 L 258.141 132.485 C 258.141 130.892 257.815 129.721 257.164 128.972 C 256.512 128.224 255.534 127.85 254.231 127.85 L 250.591 127.85 L 250.591 139.728 Z M 250.591 160.442 L 254.702 160.442 C 256.006 160.442 256.984 160.068 257.636 159.32 C 258.287 158.571 258.613 157.4 258.613 155.807 L 258.613 152.62 C 258.613 151.027 258.287 149.856 257.636 149.107 C 256.984 148.359 256.006 147.985 254.702 147.985 L 250.591 147.985 L 250.591 160.442 Z M 320.183 127.85 L 320.183 115.971 L 340.88 115.971 L 340.88 127.85 L 338.183 127.85 L 325.173 152.91 L 325.173 160.442 L 328.543 160.442 L 328.543 172.321 L 302.926 172.321 L 302.926 160.442 L 306.297 160.442 L 306.297 152.91 L 292.88 127.85 L 290.184 127.85 L 290.184 115.971 L 316.274 115.971 L 316.274 127.85 L 313.915 127.85 L 317.891 139.076 L 318.566 139.076 L 322.543 127.85 L 320.183 127.85 Z" style="fill: rgb(18, 40, 126); white-space: pre;"/>
  <path d="M 249.828 327.122 C 248.897 328.469 247.952 329.797 246.997 331.106 C 274.135 289.396 277.45 243.576 253.949 227.34 C 229.718 210.6 186.155 231.651 156.646 274.362 C 128.029 315.785 123.144 362.366 144.979 380.409 C 144.179 379.948 143.398 379.453 142.633 378.925 C 115.937 360.482 120.648 307.389 153.157 260.334 C 185.666 213.281 233.659 190.087 260.353 208.531 C 287.049 226.974 282.336 280.067 249.828 327.122 Z" style="stroke: rgb(255, 255, 255); stroke-width: 0px; fill: rgb(255, 255, 255);"/>
  <line style="stroke-width: 6px; stroke: rgb(149, 34, 34);" x1="35.274" y1="95.731" x2="342.677" y2="95.731"/>
</svg>